# xmcd CD database file
#
# Track frame offsets:
#	150
#	2396
#	17155
#	31275
#	44006
#	56034
#	73844
#	87876
#	105258
#	118223
#	133166
#	147702
#	160412
#	176795
#	186590
#	203416
#	217145
#	231228
#	244173
#	259365
#	261721
#	268988
#	281692
#	294637
#
# Disc length: 4128 seconds
#
# Revision: 2
# Processed by: cddbd v1.5.1PL0 Copyright (c) Steve Scherf et al.
# Submitted via: CDex 1.51
#
DISCID=8c101e18
DTITLE=Sertanejas Dançantes - 2005 - Vol . 3
DYEAR=2005
DGENRE=Country
TTITLE0=01 - Locução
TTITLE1=02 - Sem Grana na dá - Jorge Moises
TTITLE2=03 - Machuca Eu - Daniel
TTITLE3=04 - Sapateia Galera - Edson e Hudson
TTITLE4=05 - Pelejando - Rick e Renner
TTITLE5=06 - Sistema Bruto - Chitãozinho e Xororó
TTITLE6=07 - Uaí So - Ataíde e Alexandre
TTITLE7=08 - Mexe que é bom - Zezé e Luciano
TTITLE8=09 - Não Adiantou ir pescar - Guilerme e Santiago
TTITLE9=10 - Tic-Tic Nervoso - Cezar e Paulinho
TTITLE10=11 - Hoje Tem show de bola - Felipe e Falcão
TTITLE11=12 - Eu achei bom - Di Paulo e Paulino
TTITLE12=13 - Bate a bota no chão - Gino e Geno
TTITLE13=14 - Tá Mentindo - Rio Negro e Solimões
TTITLE14=15 - A Gostosona - Teodoro e Sampaio
TTITLE15=16 - Hoje e entro na gandaia - Jad e Jeferson
TTITLE16=17 - Eu vou chutar o barraco - Fabiano e Cesinha
TTITLE17=18 - Senti Firmeza - Chanceller e Montenegro
TTITLE18=19 - Quem tem saudade - J Pedro e Cristiano
TTITLE19=20 - Paixão Mal Curada - Alan e Aladim
TTITLE20=21 - Eu sou do meio - Juliano Cesar
TTITLE21=22 - No Hora H - Roberta Miranda
TTITLE22=23 - Feriado Nacional - Bruno e Marrone
TTITLE23=24 - Bota pra moer - Ivan Lins
EXTD=YEAR: 2005
EXTT0=
EXTT1=
EXTT2=
EXTT3=
EXTT4=
EXTT5=
EXTT6=
EXTT7=
EXTT8=
EXTT9=
EXTT10=
EXTT11=
EXTT12=
EXTT13=
EXTT14=
EXTT15=
EXTT16=
EXTT17=
EXTT18=
EXTT19=
EXTT20=
EXTT21=
EXTT22=
EXTT23=
PLAYORDER=
